<svg height="86" width="62" xmlns="http://www.w3.org/2000/svg" xmlns:xlink="http://www.w3.org/1999/xlink"><linearGradient id="a"><stop offset=".387" stop-color="#d1d3d4" stop-opacity="0"/><stop offset="1" stop-color="#d1d3d4"/></linearGradient><linearGradient id="c" x1="50%" x2="50%" xlink:href="#a" y1="100.001%" y2=".001%"/><linearGradient id="d" x1="49.999%" x2="49.999%" xlink:href="#a" y1="100.001%" y2=".001%"/><linearGradient id="b"><stop offset="0" stop-color="#e8e7e5"/><stop offset="1" stop-color="#fff"/></linearGradient><linearGradient id="e" x1="0%" x2="99.999%" xlink:href="#b" y1="50.001%" y2="50.001%"/><linearGradient id="f" x1="0%" x2="100%" xlink:href="#b" y1="50%" y2="50%"/><g fill="none" fill-rule="evenodd"><path d="M-18-6h98v98h-98z"/><g fill-rule="nonzero"><path d="M55.98 78.642L31 85.275 6.02 78.642.254 17.059h61.49z" fill="#2062af"/><path d="M31 22.824v58.592l.057.015 20.25-5.428 4.673-53.18z" fill="#3c9cd7"/><path d="M17.668 7.882V4.465h5.284V.725h-9.246v10.57h9.246V7.881zm14.788-3.417h3.693V.725h-9.246v3.74c1.237 1.167 1.882 1.726 3.671 3.414-1.046 0-3.671.004-3.671.004v3.411h9.246V7.882zm13.105 0h3.694V.725h-9.247v3.74c1.237 1.167 1.882 1.726 3.671 3.414-1.045 0-3.671.004-3.671.004v3.411h9.247V7.882zM30.373 37.617L12.745 45.15l.585 7.458 17.043-7.477 18.13-7.953.752-7.629z" fill="#fff"/><path d="M30.745 51.438l.574 7.17 16.72-7.188v-7.224z" fill="url(#c)" transform="translate(-18 -6)"/><path d="M68.216 35.549L49 43.509v7.413l18.45-7.847z" fill="url(#d)" transform="translate(-18 -6)"/><path d="M31.706 50.922l.576 7.345 25.777.085-.577 9.794L49 70.594l-8.153-2.11-.494-6.08h-7.577l.989 11.737 15.318 4.643 15.235-4.56 1.976-23.302z" fill="url(#e)" transform="translate(-18 -6)"/><path d="M30.04 44.922H12.744l.574 7.345 16.72.055zm0 19.649l-.083.023-8.114-2.11-.492-6.08h-7.54l.983 11.737 15.245 4.643z" fill="#000" opacity=".05"/><path d="M29.784 35.549h38.432l-.759 7.686H30.711z" fill="url(#f)" transform="translate(-18 -6)"/><path d="M31 29.549H11.784l.92 7.686H31z" fill="#000" opacity=".05"/></g></g></svg>