<svg height="57" width="78" xmlns="http://www.w3.org/2000/svg"><path d="M15.5 46c-2.357 0-4.5-1.8-4.5-4s1.929-4 4.5-4 4.5 1.8 4.5 4-2.143 4-4.5 4zm52.21-22.233c-.403-3.262-2.42-5.913-5.044-7.951L61.658 15l-.808 1.02c-1.614 1.834-2.219 5.097-2.017 7.543.202 1.835.807 3.67 1.816 5.097-.807.408-1.816.816-2.623 1.223-1.816.612-3.632.816-5.448.816H.323L.12 31.922a23.154 23.154 0 001.816 11.622l.807 1.427v.204C7.586 53.33 16.262 57 25.744 57c18.159 0 33.089-7.951 40.15-25.078 4.64.204 9.281-1.02 11.5-5.505L78 25.398l-1.009-.612c-2.623-1.63-6.254-1.835-9.28-1.019zM42 20h-8v8h8zm0-10h-8v8h8zm0-10h-8v8h8zm10 20h-8v8h8zm-30 0h-8v8h8zm10 0h-8v8h8zm-20 0H4v8h8zm20-10h-8v8h8zm-10 0h-8v8h8z" fill="#5e9bbc"/></svg>