<svg height="67" width="78" xmlns="http://www.w3.org/2000/svg"><g fill="none"><path d="M50.143 13.028H27.857l-13 20.472 13 20.472h22.286l13-20.472zM39 42.806c-5.2 0-9.286-4.095-9.286-9.306S33.8 24.194 39 24.194s9.286 4.095 9.286 9.306S44.2 42.806 39 42.806z" fill="#cfd8dc"/><path d="M59.057 2.233C58.13.931 56.643 0 54.975 0h-31.95c-1.668 0-3.154.93-4.082 2.233L8.17 19.913 16.714 33.5l11.7-18.611h38.254z" fill="#2196f3"/><path d="M28.414 52.111L8.17 20.1 1.49 31.08c-.93 1.49-.93 3.54 0 5.022l17.453 28.667C19.87 66.256 21.357 67 23.029 67h16.9l9.475-14.889z" fill="#ffc107"/><path d="M76.514 31.08l-9.848-16.19h-17.08l11.7 18.611L40.118 67h14.857c1.668 0 3.155-.93 4.084-2.233l17.643-28.665c.928-1.671.928-3.533-.19-5.023z" fill="#dd2c00"/><circle cx="38.5" cy="33.5" fill="#fff" r="10.5"/></g></svg>