<svg height="82" width="58" xmlns="http://www.w3.org/2000/svg"><g fill="none"><path d="M6.06 0h3.652v3.583h3.341V0h3.652v10.85h-3.652V7.217h-3.34v3.633H6.06zm15.447 3.598h-3.215V0h10.084v3.598H25.16v7.252h-3.652zM29.976 0h3.808l2.343 3.812L38.467 0h3.81v10.85h-3.638V5.472L36.127 9.33h-.063L33.55 5.472v5.378h-3.574zm14.118 0h3.653v7.263h5.135v3.587h-8.788z" fill="#fff"/><path d="M5.278 75.404L.002 16.047h57.95L52.67 75.41 28.963 82z" fill="#e34e26"/><path d="M28.977 20.9v56.058l19.17-5.33L52.664 20.9z" fill="#ef662a"/><path d="M10.797 28.18l1.957 22.015h25.159l-.844 9.443-8.101 2.196-8.085-2.193-.54-6.063h-7.287l1.042 11.687 14.868 4.142 14.888-4.142 1.995-22.349H19.393l-.664-7.455h27.778l.65-7.281z" fill="#fff"/><path d="M28.977 28.18h-18.18l1.957 22.015h16.223v-7.279h-9.584l-.664-7.455h10.248zm0 33.651l-.009.003-8.085-2.193-.54-6.063h-7.287l1.042 11.687 14.868 4.142.011-.003z" fill="#ebebeb"/></g></svg>