<svg height="76" width="67" xmlns="http://www.w3.org/2000/svg"><path d="M64.293 16.84L36.653.747c-1.742-.996-4.023-.996-5.778 0L3.018 16.84C1.222 17.878 0 19.828 0 21.914v32.144c0 2.086 1.247 4.037 3.044 5.08l7.345 4.204c3.523 1.742 4.5 1.742 6.102 1.742 5.219 0 7.929-3.167 7.929-8.691V24.659c0-.448.279-1.115-.16-1.115h-3.52c-.446 0-1.329.667-1.329 1.114v31.734c0 2.449-2.264 4.886-6.388 2.816L5.433 54.8a.843.843 0 01-.424-.742V21.914c0-.303.29-.607.558-.762L33.355 5.086a.941.941 0 01.886 0L61.77 21.148c.264.159.222.454.222.766v32.144c0 .306.057.605-.203.753L34.154 70.886a.81.81 0 01-.805 0l-7.086-4.242c-.213-.125-.47-.17-.676-.054-1.97 1.12-2.335 1.27-4.182 1.912-.455.16-1.127.435.255 1.213l9.266 5.502a5.8 5.8 0 002.91.783 5.808 5.808 0 002.922-.783l27.536-16.079C66.09 58.088 67 56.144 67 54.058V21.914c0-2.086-.91-4.031-2.707-5.074zM42.408 48.964c-7.343 0-8.96-2.033-9.499-5.698-.064-.395-.397-.867-.798-.867h-3.587c-.444 0-.802.54-.802.985 0 4.692 2.542 10.378 14.686 10.378 8.79 0 13.83-3.429 13.83-9.497 0-6.016-4.049-7.595-12.574-8.727-8.617-1.144-9.492-1.721-9.492-3.747 0-1.671.74-3.9 7.122-3.9 5.7 0 7.802 1.229 8.666 5.086a.792.792 0 00.777.623h3.603a.82.82 0 00.588-.249.816.816 0 00.21-.615c-.559-6.643-4.954-9.738-13.845-9.738-7.91 0-12.627 3.352-12.627 8.972 0 6.095 4.694 7.78 12.286 8.533 9.083.894 9.79 2.226 9.79 4.02 0 3.114-2.492 4.441-8.334 4.441z" fill="#83cd29"/></svg>