<svg height="51" width="86" xmlns="http://www.w3.org/2000/svg"><g fill="none" fill-rule="evenodd"><path d="M23.71 18.062c0 1.023.114 1.853.315 2.461.229.609.515 1.273.916 1.992.143.221.2.442.2.636 0 .277-.171.553-.543.83l-1.805 1.162c-.258.166-.516.248-.745.248-.286 0-.573-.138-.86-.387a8.597 8.597 0 01-1.03-1.3 20.76 20.76 0 01-.888-1.632c-2.235 2.545-5.042 3.817-8.422 3.817-2.406 0-4.325-.663-5.728-1.991C3.716 22.57 3 20.8 3 18.588c0-2.352.859-4.26 2.607-5.699 1.747-1.438 4.067-2.157 7.017-2.157.974 0 1.977.083 3.037.221 1.06.138 2.148.36 3.294.609v-2.02c0-2.102-.459-3.568-1.347-4.425-.916-.857-2.463-1.272-4.669-1.272-1.002 0-2.033.11-3.093.36-1.06.248-2.091.552-3.094.94a8.41 8.41 0 01-1.002.36c-.2.055-.344.082-.459.082-.4 0-.601-.276-.601-.857V3.374c0-.442.057-.774.2-.968.144-.193.401-.387.803-.58C6.695 1.328 7.898.913 9.302.58 10.705.22 12.195.055 13.77.055c3.409 0 5.9.747 7.505 2.24C22.85 3.79 23.652 6.058 23.652 9.1v8.962zm-11.63 4.204c.945 0 1.919-.166 2.95-.498 1.032-.332 1.948-.94 2.722-1.77.458-.526.801-1.107.974-1.77a9.605 9.605 0 00.286-2.407V14.66c-.83-.194-1.719-.36-2.635-.47a22.341 22.341 0 00-2.693-.167c-1.919 0-3.323.36-4.268 1.107-.945.747-1.403 1.798-1.403 3.18 0 1.3.343 2.269 1.06 2.933.687.691 1.69 1.023 3.007 1.023zm23.001 2.987c-.515 0-.86-.083-1.088-.276-.23-.166-.43-.554-.602-1.08L26.66 2.518c-.172-.553-.258-.913-.258-1.106 0-.443.229-.692.688-.692h2.807c.544 0 .916.083 1.117.277.229.166.4.553.573 1.078l4.812 18.311 4.468-18.31c.144-.554.315-.913.545-1.08.229-.165.63-.276 1.145-.276h2.292c.544 0 .916.083 1.146.277.229.166.43.553.544 1.078l4.525 18.532L56.02 2.074c.172-.553.372-.912.573-1.078.229-.166.601-.277 1.117-.277h2.664c.458 0 .716.221.716.692 0 .138-.029.276-.057.442a3.854 3.854 0 01-.2.692l-6.904 21.38c-.172.554-.373.913-.602 1.08-.229.165-.601.276-1.088.276h-2.464c-.544 0-.916-.083-1.145-.277-.23-.193-.43-.553-.544-1.106l-4.44-17.84-4.411 17.812c-.144.553-.315.913-.545 1.107-.229.193-.63.276-1.145.276zM71.89 26c-1.49 0-2.98-.166-4.411-.498-1.433-.332-2.55-.691-3.295-1.106-.458-.25-.773-.526-.887-.775a1.895 1.895 0 01-.172-.774v-1.41c0-.582.229-.858.658-.858.172 0 .344.027.516.083.172.055.43.166.716.276.974.415 2.034.747 3.15.968 1.147.222 2.264.332 3.41.332 1.804 0 3.208-.304 4.181-.912.975-.609 1.49-1.494 1.49-2.628 0-.775-.258-1.41-.774-1.936-.515-.526-1.489-.996-2.893-1.439l-4.153-1.244c-2.09-.636-3.637-1.577-4.583-2.822-.945-1.217-1.432-2.572-1.432-4.01 0-1.162.258-2.185.773-3.07a7.192 7.192 0 012.063-2.268c.86-.637 1.833-1.107 2.979-1.439C70.37.138 71.574 0 72.834 0c.63 0 1.289.028 1.919.11.659.084 1.26.194 1.862.305a22.93 22.93 0 011.633.442c.515.166.916.332 1.203.498.4.222.687.443.859.692.172.221.258.525.258.913v1.3c0 .58-.23.885-.659.885-.23 0-.602-.111-1.088-.332-1.633-.72-3.466-1.079-5.5-1.079-1.633 0-2.922.249-3.81.775-.888.525-1.346 1.327-1.346 2.461 0 .775.286 1.439.86 1.964.572.526 1.632 1.051 3.15 1.521l4.068 1.245c2.062.636 3.551 1.521 4.44 2.655C81.57 15.49 82 16.79 82 18.228c0 1.189-.258 2.268-.745 3.208a7.504 7.504 0 01-2.09 2.434c-.889.692-1.949 1.19-3.18 1.55a14.07 14.07 0 01-4.096.58z" fill="#fff"/><path d="M77.751 40.561C68.341 47.38 54.669 51 42.913 51 26.438 51 11.593 45.023.381 35.089c-.887-.786-.086-1.852.973-1.235C13.48 40.757 28.44 44.94 43.914 44.94c10.44 0 21.91-2.133 32.464-6.51 1.574-.702 2.918 1.01 1.373 2.132zm3.919-4.378c-1.202-1.515-7.952-.73-11.012-.364-.916.112-1.059-.674-.229-1.263 5.377-3.704 14.215-2.638 15.245-1.403 1.03 1.262-.286 9.934-5.32 14.087-.772.645-1.516.308-1.173-.533 1.144-2.779 3.69-9.036 2.489-10.524z" fill="#f90"/></g></svg>