<svg width="100" height="94" xmlns="http://www.w3.org/2000/svg">

 <g>
  <title>background</title>
  <rect fill="none" id="canvas_background" height="602" width="802" y="-1" x="-1"/>
 </g>
 <g>
  <title>Layer 1</title>
  <g id="svg_1" transform="matrix(0.945094,0,0,0.945094,6.301403,4.347014) ">
   <path id="svg_2" fill="#0868ac" d="m20.44,13.78c-5.283,7.733 -4.625,17.793 -0.6,26l0.296,0.585l0.2,0.37c0.037,0.072 0.08,0.143 0.118,0.213c0.07,0.13 0.14,0.255 0.2,0.383l0.385,0.673l0.22,0.37l0.447,0.712l0.2,0.3c0.2,0.32 0.426,0.638 0.648,0.952c0.005,0.008 0.012,0.017 0.018,0.025c0.035,0.05 0.074,0.1 0.1,0.15c0.192,0.27 0.4,0.536 0.6,0.8l0.222,0.288l0.545,0.682l0.208,0.254a31.65,31.65 0 0 0 0.76,0.884l0.016,0.016c0.01,0.013 0.02,0.02 0.03,0.033a23.73,23.73 0 0 0 0.772,0.83l0.248,0.254l0.617,0.616l0.252,0.244a34.49,34.49 0 0 0 0.845,0.783l0.16,0.14l0.767,0.66l0.318,0.258l0.64,0.5l0.342,0.265l0.978,0.715c0.025,0.017 0.047,0.035 0.072,0.052c0.23,0.16 0.463,0.315 0.697,0.47l0.302,0.205l1.092,0.68l0.302,0.173l0.82,0.468c0.15,0.082 0.303,0.16 0.453,0.238l0.586,0.3l0.135,0.066l0.24,0.118l0.93,0.438l0.197,0.1a32.93,32.93 0 0 0 1.084,0.459l0.264,0.106l1.023,0.386l0.128,0.046a34.62,34.62 0 0 0 1.14,0.38l0.275,0.084c0.4,0.12 0.775,0.263 1.177,0.34c25.548,4.756 32.971,-15.626 32.971,-15.626c-6.233,8.27 -17.296,10.45 -27.778,8.023c-0.397,-0.1 -0.782,-0.217 -1.17,-0.334l-0.292,-0.1c-0.378,-0.118 -0.754,-0.243 -1.126,-0.373l-0.155,-0.057a35.02,35.02 0 0 1 -0.993,-0.375l-0.28,-0.112a31.57,31.57 0 0 1 -1.072,-0.454l-0.214,-0.096l-0.904,-0.43l-0.26,-0.128a30.9,30.9 0 0 1 -0.7,-0.363l-0.467,-0.25a26.89,26.89 0 0 1 -0.838,-0.479l-0.283,-0.16c-0.368,-0.22 -0.732,-0.45 -1.092,-0.68c-0.1,-0.065 -0.196,-0.134 -0.295,-0.2l-0.777,-0.526l-0.25,-0.18l-0.735,-0.54l-0.326,-0.25l-0.663,-0.528l-0.296,-0.24l-0.825,-0.7c-0.028,-0.025 -0.06,-0.05 -0.1,-0.077c-0.294,-0.263 -0.583,-0.533 -0.868,-0.804l-0.244,-0.24l-0.624,-0.622l-0.244,-0.25a31.33,31.33 0 0 1 -0.765,-0.824c-0.012,-0.014 -0.026,-0.027 -0.038,-0.04a31.49,31.49 0 0 1 -0.776,-0.9l-0.203,-0.246l-0.56,-0.703l-0.205,-0.26l-0.645,-0.875c-5.82,-8.085 -7.9,-19.235 -3.26,-28.393m12.283,-1.188c-3.82,5.6 -3.613,13.094 -0.633,19.016a24.87,24.87 0 0 0 1.69,2.873c0.572,0.835 1.207,1.83 1.967,2.5c0.275,0.3 0.563,0.6 0.857,0.906c0.074,0.077 0.15,0.15 0.226,0.227a25.21,25.21 0 0 0 0.876,0.829c0.012,0.01 0.023,0.022 0.036,0.032a26.31,26.31 0 0 0 1.031,0.87l0.232,0.184a25.13,25.13 0 0 0 1.07,0.796a0.6,0.6 0 0 0 0.03,0.023c0.16,0.113 0.325,0.22 0.488,0.328c0.078,0.052 0.152,0.107 0.23,0.156a21.65,21.65 0 0 0 0.793,0.495l0.112,0.066l0.7,0.4c0.082,0.047 0.166,0.088 0.25,0.132l0.5,0.258c0.025,0.013 0.05,0.023 0.074,0.035c0.337,0.17 0.676,0.33 1.023,0.485c0.074,0.033 0.15,0.063 0.226,0.095c0.277,0.12 0.557,0.236 0.84,0.347l0.36,0.134a26.33,26.33 0 0 0 0.77,0.273l0.348,0.113c0.367,0.117 0.73,0.263 1.113,0.328c19.725,3.328 24.28,-12.14 24.28,-12.14c-4.105,6.02 -12.054,8.894 -20.538,6.652a21.09,21.09 0 0 1 -1.117,-0.33c-0.113,-0.035 -0.224,-0.072 -0.336,-0.1a22.36,22.36 0 0 1 -0.781,-0.274l-0.353,-0.134c-0.283,-0.1 -0.563,-0.225 -0.84,-0.345c-0.076,-0.033 -0.152,-0.063 -0.227,-0.098a19.53,19.53 0 0 1 -1.03,-0.487c-0.174,-0.087 -0.345,-0.178 -0.516,-0.268l-0.298,-0.156a20.05,20.05 0 0 1 -0.653,-0.375l-0.156,-0.1a25.46,25.46 0 0 1 -0.79,-0.492c-0.08,-0.052 -0.158,-0.1 -0.238,-0.162l-0.512,-0.345a27.46,27.46 0 0 1 -1.066,-0.794l-0.24,-0.192c-3.713,-2.986 -6.657,-7.066 -8.056,-11.693c-1.467,-4.8 -1.15,-10.185 1.4,-14.556m10.648,-0.38c-2.252,3.376 -2.473,7.568 -0.9,11.296c1.648,3.957 5.025,7.062 8.966,8.533c0.162,0.062 0.325,0.117 0.5,0.173l0.216,0.07c0.232,0.074 0.463,0.16 0.702,0.206c10.892,2.143 13.846,-5.692 14.632,-6.845c-2.588,3.795 -6.937,4.706 -12.273,3.387c-0.42,-0.105 -0.885,-0.26 -1.3,-0.406a15.62,15.62 0 0 1 -1.533,-0.649a15.81,15.81 0 0 1 -2.688,-1.671c-4.785,-3.69 -7.752,-10.728 -4.636,-16.46"/>
   <g id="svg_3" fill="#131b28">
    <path fill="#ffffff" id="svg_4" d="m26.576,74.06l-0.738,2.616l0.738,-2.615l0,-0.001zm3.796,5.678l-0.813,-0.005l0.813,0.005zm-0.2,3.906l-4.872,0.018l4.872,-0.018zm1.02,-3.9l-0.814,-0.005l0.814,0.005zm-0.582,3.568l0.85,-3.237l-0.85,3.237zm17.93,-14.907l-1.58,7.433l1.58,-7.433zm-4.065,0l-1.2,5.553l1.2,-5.553z"/>
    <path fill="#ffffff" id="svg_5" d="m48.26,68.07l-3.38,0c-0.188,0 -0.374,0.15 -0.414,0.334l-2.4,11.107c-0.04,0.183 -0.226,0.333 -0.413,0.333l-2.393,0c-2.368,0 -2.094,-1.637 -1.6,-3.88l0.015,-0.068l0.287,-1.53l0.124,-0.63l1.092,-5.332c0.038,-0.184 -0.085,-0.335 -0.273,-0.335l-3.47,0a0.44,0.44 0 0 0 -0.412,0.334l-1.563,7.414c-0.86,3.924 -0.632,7.666 4.04,7.783l0.135,0.003l7.332,0c0.188,0 0.373,-0.15 0.413,-0.334l3.162,-14.866c0.04,-0.184 -0.083,-0.334 -0.27,-0.334l-0.012,0.001zm13.487,11.813c0.188,0 0.3,0.15 0.273,0.334l-0.328,1.605m-0.328,1.606l0.328,-1.606l-0.328,1.606zm-0.412,0.338l-6.23,0.03l6.23,-0.03z"/>
    <path fill="#ffffff" id="svg_6" d="m52.704,77.817c-0.003,-0.176 0.197,-0.478 0.385,-0.478l-0.422,-0.007c-0.2,1.914 0.037,0.485 0.037,0.485zm2.326,5.978l-0.065,0l0.065,0zm6.717,-3.912c0.188,0 0.3,0.15 0.273,0.334l-0.382,1.866m-5.008,1.717l-0.014,0l0.014,0zm-0.83,-0.006l-0.048,0l0.048,0zm-0.253,0.001l-0.08,0l0.08,0zm-0.247,0l-0.07,0l0.07,0zm0.462,-0.001l-0.205,0l0.205,0z"/>
    <path fill="#ffffff" id="svg_7" d="m56.617,83.8l-0.816,0.003l0.816,-0.003zm4.337,-0.025l-4.325,0.026l4.325,-0.026zm0.4,-0.347l0.275,-1.344l-0.275,1.345l0,-0.001zm-5.896,0.367l-0.158,0l0.178,0l-0.02,0zm-0.495,0l-0.24,0l0.24,0zm0.257,0l-0.2,0l0.2,0zm-49.46,-5.938l0.525,-2.328l-0.6,2.66l-0.07,0.334l0.146,-0.668l-0.001,0.002zm6.286,-9.825l-3.713,0a0.45,0.45 0 0 0 -0.417,0.333l-0.704,3.1a0.26,0.26 0 0 0 0.266,0.333l3.742,0c0.188,0 0.374,-0.15 0.414,-0.333l0.68,-3.107c0.04,-0.183 -0.08,-0.333 -0.27,-0.333l0.002,0.007zm-0.808,5.168l-1.1,5.038l1.1,-5.038zm-10.786,16.695l3.062,0.024c-0.904,0 -2.397,-0.017 -3.063,-0.025l0.001,0.001z"/>
    <path fill="#ffffff" id="svg_8" d="m6.8,73.2l-0.526,2.328l0.526,-2.328zm4.17,-0.333l-3.743,0a0.45,0.45 0 0 0 -0.417,0.333l-1.05,4.656l-0.146,0.668l-1,4.753a7.16,7.16 0 0 1 -0.18,0.657s-0.7,2.08 -1.874,2.057l-1.165,-0.022a0.45,0.45 0 0 0 -0.42,0.326l-0.775,3.263a0.26,0.26 0 0 0 0.261,0.336l3.063,0.025c2.936,0 4.483,-1.627 5.476,-6.307l2.25,-10.4c0.04,-0.183 -0.082,-0.333 -0.27,-0.333l-0.01,-0.012zm53.162,10.738c-0.188,0 -0.3,-0.15 -0.27,-0.334l2.815,-13.186m1.367,13.185l1.14,-5.628l-1.14,5.628z"/>
    <path fill="#ffffff" id="svg_9" d="m63.903,83.438c-0.023,-0.092 -0.01,-0.317 0.03,-0.5l1.336,-6.26l-1.408,6.593c-0.04,0.184 0.082,0.334 0.27,0.334l0.342,0c-0.188,0 -0.548,-0.075 -0.57,-0.167zm3.92,0.092c-0.102,0.04 -0.34,0.075 -0.528,0.075l0.342,0a0.44,0.44 0 0 0 0.41,-0.335l0.068,-0.334c-0.037,0.184 -0.2,0.553 -0.3,0.594l0.008,0zm0.79,-3.074l0.503,-2.484l-0.503,2.484zm11.108,-9.488l0.155,0.64c0.043,0.183 -0.076,0.332 -0.263,0.333"/>
    <path fill="#ffffff" id="svg_10" d="m68.112,82.936l0.5,-2.48l-0.5,2.48zm11.456,-12.636l0.153,0.656l-0.153,-0.656zm-10.452,7.672l0.138,-0.664l0.537,-2.515l-0.608,2.848l-0.067,0.33l0,0.001zm-2.393,-8.104l-0.117,0.55l-1.336,6.26l1.408,-6.593l0.045,-0.216l0,-0.001z"/>
    <path fill="#ffffff" id="svg_11" d="m79.877,71.608l-0.155,-0.64l-0.23,-1c-0.304,-1.18 -1.196,-1.863 -3.134,-1.863l-8.92,-0.006a0.44,0.44 0 0 0 -0.412,0.334l-0.138,0.653l-0.2,0.987l-2.744,12.853c-0.04,0.184 -0.053,0.4 -0.03,0.5s0.383,0.167 0.57,0.167l2.82,0c0.188,0 0.425,-0.034 0.528,-0.075s0.254,-0.4 0.3,-0.594l1.07,-5.294l1.145,-5.364c0.04,-0.183 0.225,-0.332 0.412,-0.333l8.873,-0.004c0.187,0 0.306,-0.15 0.263,-0.333l-0.018,0.012zm11.423,-5.793l-0.683,0.003l-2.84,0a0.73,0.73 0 0 0 -0.534,0.282l-6.28,9.2c-0.106,0.155 -0.227,0.132 -0.27,-0.05l-0.462,-2.027a0.45,0.45 0 0 0 -0.417,-0.333l-4.037,0c-0.188,0 -0.3,0.147 -0.248,0.328l1.8,6.338c0.052,0.18 0.055,0.477 0.01,0.66l-0.8,3.067a0.25,0.25 0 0 0 0.257,0.331l4,0c0.188,0 0.38,-0.15 0.426,-0.33l0.8,-3.067a2.04,2.04 0 0 1 0.29,-0.604l10.206,-13.533c0.113,-0.15 0.052,-0.272 -0.136,-0.27l-1.07,0.007l-0.012,-0.002zm-32.076,7.937c-0.024,0.2 -0.212,0.35 -0.4,0.35l-5.12,0c-0.177,0 -0.267,-0.12 -0.24,-0.27l0.004,-0.027l0.023,-0.087c0.5,-1.3 1.485,-2.153 3.356,-2.153c2.107,0 2.518,1.03 2.375,2.187l0.002,0zm-1.502,-5.908c-6.57,0 -8.127,3.988 -9,8.013c-0.874,4.103 -0.798,7.94 6,7.94l1.078,0l0.83,-0.003l4.326,-0.026a0.44,0.44 0 0 0 0.407,-0.335l0.657,-3.212c0.038,-0.184 -0.085,-0.334 -0.273,-0.334l-6.112,0c-2.43,0 -3.153,-0.646 -2.887,-2.545l9.77,0c0.16,-0.003 0.305,-0.1 0.362,-0.252c0.01,-0.027 0.02,-0.056 0.024,-0.085c1.45,-5.47 1.034,-9.157 -5.18,-9.157l-0.002,-0.004zm-31.054,5.886l-0.092,0.327c0,0.001 -0.738,2.616 -0.738,2.616l-0.738,2.614a0.48,0.48 0 0 1 -0.434,0.328l-3.906,0c-2.962,0 -3.683,-2.317 -2.962,-5.734c0.72,-3.495 2.135,-5.668 5.05,-5.888c3.984,-0.3 4.78,2.502 3.82,5.736l0,0.001zm2.678,5.685s1.84,-4.47 2.26,-7.053c0.57,-3.457 -1.16,-8.47 -7.845,-8.47c-6.647,0 -9.533,4.786 -10.634,10c-1.1,5.24 0.342,9.836 6.95,9.8l10.086,-0.037a0.47,0.47 0 0 0 0.427,-0.332l0.85,-3.238a0.25,0.25 0 0 0 -0.255,-0.332l-1.627,-0.01c-0.16,-0.001 -0.25,-0.104 -0.232,-0.24c0.004,-0.025 0.01,-0.05 0.02,-0.076l0,-0.012z"/>
    <path fill="#ffffff" id="svg_12" d="m62.25,76.424c0,0.124 -0.1,0.224 -0.224,0.224s-0.224,-0.1 -0.224,-0.224s0.1,-0.224 0.224,-0.224s0.224,0.1 0.224,0.224z"/>
   </g>
  </g>
 </g>
</svg>