<svg height="76" width="85" xmlns="http://www.w3.org/2000/svg"><g fill="#61dafb" fill-rule="evenodd"><ellipse cx="42.5" cy="38" rx="7.69" ry="7.736"/><path d="M71.71 25.243c-1.484-.543-3.035-1.086-4.654-1.56a68.417 68.417 0 001.011-4.819c1.417-8.957-.134-15.268-4.452-17.71C62.333.407 60.917.068 59.298.068 54.575.068 48.57 3.596 42.5 9.5 36.429 3.596 30.425.068 25.702.068c-1.619 0-3.035.34-4.317 1.086-4.318 2.51-5.87 8.821-4.452 17.71.27 1.561.607 3.19 1.011 4.818-1.619.475-3.17.95-4.654 1.56C4.857 28.5.27 32.98.27 38s4.655 9.5 13.02 12.757c1.484.543 3.035 1.086 4.654 1.56a68.417 68.417 0 00-1.011 4.819c-1.417 8.957.134 15.268 4.452 17.71 1.282.747 2.698 1.086 4.317 1.086 4.79 0 10.794-3.528 16.798-9.432 6.071 5.904 12.075 9.432 16.798 9.432 1.619 0 3.035-.34 4.317-1.086 4.318-2.51 5.87-8.821 4.452-17.71a68.828 68.828 0 00-1.011-4.818c1.619-.475 3.17-.95 4.654-1.56C80.143 47.5 84.73 43.02 84.73 38s-4.587-9.5-13.02-12.757zM61.726 4.546c2.766 1.629 3.71 6.65 2.564 13.775-.203 1.425-.54 2.918-.945 4.479-3.508-.814-7.218-1.357-11.13-1.696a97.81 97.81 0 00-7.017-8.822C50.19 7.33 55.25 3.936 59.365 3.936c.877 0 1.687.203 2.361.61zm-7.555 40.24c-1.215 2.171-2.631 4.343-4.115 6.514-2.496.204-4.993.271-7.556.271-2.631 0-5.127-.067-7.556-.271a85.569 85.569 0 01-4.047-6.514A109.547 109.547 0 0127.32 38c1.08-2.24 2.294-4.546 3.576-6.786 1.214-2.171 2.63-4.343 4.115-6.514 2.496-.204 4.992-.271 7.555-.271 2.631 0 5.127.067 7.556.271a85.569 85.569 0 014.048 6.514A109.547 109.547 0 0157.746 38c-1.147 2.24-2.294 4.479-3.575 6.786zm5.599-2.24c1.012 2.375 1.821 4.683 2.563 6.99-2.293.543-4.722.95-7.285 1.289.81-1.29 1.686-2.646 2.428-4.071.81-1.425 1.552-2.85 2.294-4.208zM42.5 60.936c-1.619-1.765-3.17-3.665-4.655-5.632 1.552.067 3.103.135 4.655.135s3.103-.068 4.655-.135c-1.484 1.967-3.036 3.867-4.655 5.632zM29.952 50.757c-2.563-.34-4.992-.746-7.285-1.29.742-2.238 1.551-4.613 2.563-6.988.742 1.357 1.484 2.782 2.294 4.139.81 1.493 1.619 2.782 2.428 4.14zM25.23 33.454c-1.012-2.375-1.821-4.683-2.563-6.99 2.293-.543 4.722-.95 7.285-1.289-.81 1.29-1.686 2.646-2.428 4.071-.81 1.425-1.552 2.85-2.294 4.208zm17.27-18.39c1.619 1.765 3.17 3.665 4.655 5.632-1.552-.067-3.103-.135-4.655-.135s-3.103.068-4.655.135c1.484-1.967 3.036-3.867 4.655-5.632zm14.976 14.25l-2.428-4.071c2.563.34 4.992.746 7.285 1.29-.742 2.238-1.551 4.613-2.563 6.988-.742-1.425-1.484-2.85-2.294-4.207zM20.71 18.321c-1.147-7.125-.202-12.146 2.564-13.775.674-.407 1.484-.61 2.36-.61 4.049 0 9.108 3.325 14.168 8.346-2.362 2.579-4.723 5.564-7.016 8.822-3.913.339-7.623.95-11.131 1.696-.405-1.56-.675-3.054-.945-4.479zM4.048 38c0-3.19 3.845-6.582 10.59-9.093 1.35-.543 2.834-1.018 4.318-1.425a99.264 99.264 0 004.048 10.586c-1.62 3.596-3.036 7.125-4.048 10.518C9.646 45.87 4.048 41.8 4.048 38zm19.226 33.454c-2.766-1.629-3.71-6.65-2.564-13.775.203-1.425.54-2.918.945-4.479 3.508.814 7.218 1.357 11.13 1.696a97.81 97.81 0 007.017 8.822c-4.992 4.953-10.052 8.346-14.167 8.346-.877 0-1.687-.203-2.361-.61zM64.29 57.679c1.147 7.125.202 12.146-2.564 13.775-.674.407-1.484.61-2.36.61-4.049 0-9.108-3.325-14.168-8.346 2.362-2.579 4.723-5.564 7.016-8.822 3.913-.339 7.623-.95 11.131-1.696.405 1.56.675 3.054.945 4.479zm6.071-10.586c-1.35.543-2.833 1.018-4.317 1.425a99.264 99.264 0 00-4.048-10.586c1.62-3.596 3.036-7.125 4.048-10.518C75.354 30.13 80.952 34.2 80.952 38c0 3.19-3.912 6.582-10.59 9.093z" fill-rule="nonzero"/></g></svg>