<svg width="59" height="34" xmlns="http://www.w3.org/2000/svg"><path d="M55.529 16.186c.081-3.175-2.388-5.842-5.483-5.925-3.249-.086-5.943 2.38-6.025 5.515-.088 3.333 2.385 5.97 5.675 6.055 3.137.08 5.751-2.449 5.833-5.645zm3.47 8.978h-3.404v-1.906c-.224.13-.369.2-.5.29-5.703 3.873-13.25.598-14.32-6.215-.777-4.948 2.873-9.791 7.828-10.389C54.28 6.26 58.998 10.454 59 16.19v8.974zm-40.59-4.717c.165-.367.281-.611.387-.86 1.735-4.055 3.474-8.107 5.193-12.169.17-.402.37-.561.817-.546 1.057.037 2.116.012 3.251.012-.09.237-.149.42-.225.594-3.772 8.665-7.547 17.329-11.311 25.997-.16.368-.336.539-.767.524-1.078-.037-2.158-.012-3.315-.012.09-.233.156-.426.239-.612 1.185-2.64 2.363-5.284 3.57-7.915.18-.395.184-.712.024-1.111-2.255-5.608-4.495-11.222-6.737-16.835-.071-.179-.129-.364-.222-.629 1.194 0 2.324-.02 3.451.024.157.006.362.303.444.506 1.402 3.49 2.788 6.985 4.179 10.479.32.804.643 1.607 1.021 2.553zM.008 0H3.43v17.981c0 2.576.974 3.618 3.545 3.763.664.037 1.332.005 2.05.005v3.43c-2.228.056-4.464.17-6.512-.994C.88 23.257.043 21.773.03 19.95-.022 13.323.01 6.695.01 0zm30.17 6.895h3.392v3.306c1.75-2.419 4.004-3.422 6.817-3.323v3.312c-.116.02-.245.065-.371.059-3.165-.152-5.43 2.04-6.168 5.031-.196.793-.252 1.636-.264 2.458-.035 2.427-.016 4.853-.02 7.28 0 .037-.017.075-.039.163H30.18V6.895z" fill="#FFF" fill-rule="nonzero"/></svg>